<svg width="24" height="24" viewBox="0 0 24 24" fill="none" xmlns="http://www.w3.org/2000/svg">
<g clip-path="url(#clip0_755_343)">
<path d="M12 13.2857C13.4201 13.2857 14.5714 12.1344 14.5714 10.7143C14.5714 9.29412 13.4201 8.14286 12 8.14286C10.5798 8.14286 9.42856 9.29412 9.42856 10.7143C9.42856 12.1344 10.5798 13.2857 12 13.2857Z" fill="#62C3C6"/>
<path d="M4.85443 2.35714C4.80625 2.39449 4.76659 2.44168 4.7381 2.49557C4.7096 2.54946 4.69293 2.6088 4.6892 2.66965C4.68547 2.73049 4.69476 2.79143 4.71645 2.8484C4.73815 2.90536 4.77174 2.95705 4.815 3L6.04671 4.22571C6.11874 4.29676 6.21358 4.34004 6.31445 4.34788C6.41532 4.35573 6.51571 4.32763 6.59786 4.26857C7.71958 3.48359 8.99928 2.95322 10.3474 2.71457C10.554 2.68114 10.7074 2.50457 10.7104 2.295V0.557142C10.7113 0.496012 10.699 0.435407 10.6744 0.379445C10.6498 0.323482 10.6134 0.273474 10.5678 0.232816C10.5221 0.192159 10.4682 0.161805 10.4098 0.143818C10.3514 0.12583 10.2898 0.12063 10.2291 0.128571C8.28045 0.414087 6.4334 1.17995 4.85443 2.35714ZM19.14 2.35157C17.5599 1.17778 15.7128 0.415203 13.7649 0.132428C13.7043 0.124856 13.6428 0.130313 13.5845 0.148434C13.5262 0.166554 13.4724 0.19692 13.4268 0.237498C13.3812 0.278076 13.3448 0.327929 13.32 0.383721C13.2952 0.439512 13.2827 0.499954 13.2831 0.561V2.298C13.284 2.39963 13.3209 2.49766 13.3873 2.57459C13.4537 2.65152 13.5453 2.70235 13.6457 2.718C14.9942 2.95444 16.2747 3.48293 17.3974 4.26643C17.4795 4.32526 17.5797 4.35322 17.6804 4.34538C17.7811 4.33754 17.8757 4.2944 17.9477 4.22357L19.1803 2.99571C19.2237 2.95269 19.2574 2.90088 19.2792 2.84375C19.3009 2.78662 19.3102 2.7255 19.3064 2.6645C19.3026 2.60349 19.2858 2.544 19.2571 2.49003C19.2284 2.43605 19.1884 2.38885 19.14 2.35157ZM21.702 10.7104H23.4429C23.504 10.7113 23.5646 10.699 23.6206 10.6744C23.6765 10.6498 23.7265 10.6134 23.7672 10.5678C23.8078 10.5221 23.8382 10.4682 23.8562 10.4098C23.8742 10.3514 23.8794 10.2898 23.8714 10.2291C23.5864 8.2796 22.8196 6.43195 21.6403 4.85357C21.6029 4.80539 21.5558 4.76573 21.5019 4.73724C21.448 4.70875 21.3886 4.69208 21.3278 4.68835C21.2669 4.68461 21.206 4.6939 21.149 4.7156C21.0921 4.73729 21.0404 4.77089 20.9974 4.81414L19.7709 6.04286C19.6998 6.11489 19.6565 6.20973 19.6487 6.3106C19.6408 6.41146 19.6689 6.51185 19.728 6.594C20.5134 7.71707 21.0438 8.99827 21.282 10.3479C21.3154 10.5544 21.4924 10.7079 21.702 10.7104ZM21.7011 13.2857C21.5998 13.2864 21.5019 13.3229 21.4249 13.3889C21.3479 13.4549 21.2968 13.546 21.2807 13.6461C20.4836 18.1466 16.5724 21.4269 12.0021 21.4281C7.43143 21.4294 3.51814 18.1521 2.718 13.6521C2.70188 13.552 2.65098 13.4608 2.57424 13.3945C2.4975 13.3281 2.39984 13.291 2.29843 13.2896H0.564428C0.503298 13.2887 0.442693 13.301 0.38673 13.3256C0.330768 13.3502 0.280759 13.3866 0.240102 13.4322C0.199445 13.4779 0.169091 13.5318 0.151104 13.5902C0.133116 13.6486 0.127916 13.7102 0.135857 13.7709C1.02386 19.7421 6.21171 24.123 12.2473 23.9983C18.2829 23.874 23.2856 19.2831 23.9271 13.2806L23.9246 13.2857H21.7011ZM0.559714 10.7169H2.298C2.39963 10.716 2.49766 10.6791 2.57459 10.6127C2.65152 10.5463 2.70235 10.4547 2.718 10.3543C2.97514 8.88429 3.579 7.49571 4.47943 6.30557C4.48181 6.303 4.48318 6.29965 4.48329 6.29614L3.00386 4.818C2.96088 4.77477 2.90917 4.7412 2.85218 4.71954C2.7952 4.69789 2.73425 4.68864 2.67341 4.69241C2.61256 4.69618 2.55322 4.71289 2.49935 4.74142C2.44548 4.76995 2.39831 4.80965 2.361 4.85786C1.18123 6.43633 0.415109 8.28488 0.132428 10.2351C0.124871 10.2956 0.130296 10.357 0.148341 10.4152C0.166387 10.4734 0.196637 10.5271 0.237074 10.5727C0.277512 10.6183 0.327206 10.6547 0.382842 10.6796C0.438478 10.7044 0.498776 10.7171 0.559714 10.7169Z" fill="#62C3C6"/>
<path d="M12 18.8571C13.5074 18.8629 14.9743 18.3694 16.1717 17.4537C17.3691 16.538 18.2296 15.2516 18.6188 13.7953C18.6377 13.7233 18.6376 13.6476 18.6183 13.5757C18.5991 13.5038 18.5614 13.4381 18.5091 13.3852C18.4568 13.3322 18.3915 13.2938 18.3199 13.2738C18.2482 13.2537 18.1725 13.2526 18.1003 13.2707C17.4163 13.4366 16.7475 13.6598 16.101 13.938C15.2525 14.2766 14.4844 14.7894 13.8463 15.4432C13.2082 16.097 12.7143 16.8773 12.3964 17.7339C12.3641 17.8125 12.3092 17.8797 12.2386 17.927C12.168 17.9743 12.085 17.9996 12 17.9996C11.915 17.9996 11.8319 17.9743 11.7614 17.927C11.6908 17.8797 11.6358 17.8125 11.6036 17.7339C11.2857 16.8773 10.7917 16.0969 10.1536 15.4431C9.51539 14.7892 8.74718 14.2765 7.89856 13.938C7.25259 13.6603 6.58474 13.4365 5.90184 13.269C5.82955 13.2506 5.75371 13.2514 5.68182 13.2713C5.60993 13.2911 5.54447 13.3295 5.49192 13.3824C5.43937 13.4353 5.40154 13.5011 5.38219 13.5731C5.36283 13.6452 5.36261 13.721 5.38156 13.7931C5.77034 15.2498 6.63058 16.5367 7.82794 17.4528C9.0253 18.369 10.4924 18.8628 12 18.8571Z" fill="#62C3C6"/>
</g>
<defs>
<clipPath id="clip0_755_343">
<rect width="24" height="24" fill="white"/>
</clipPath>
</defs>
</svg>
