<svg width="12" height="12" viewBox="0 0 12 12" fill="none" xmlns="http://www.w3.org/2000/svg">
<path fill-rule="evenodd" clip-rule="evenodd" d="M1.59415 9.14712C1.24653 9.49474 1.24653 10.0583 1.59415 10.406C1.94177 10.7536 2.50537 10.7536 2.85299 10.406L6.00013 7.25883L9.14726 10.406C9.49488 10.7536 10.0585 10.7536 10.4061 10.406C10.7537 10.0583 10.7537 9.49474 10.4061 9.14712L7.25897 5.99998L10.4061 2.8529C10.7537 2.50528 10.7537 1.94168 10.4061 1.59406C10.0584 1.24644 9.49483 1.24644 9.14721 1.59406L6.00013 4.74114L2.85305 1.59406C2.50543 1.24644 1.94182 1.24644 1.5942 1.59406C1.24658 1.94168 1.24658 2.50528 1.5942 2.8529L4.74129 5.99998L1.59415 9.14712Z" fill="#28E3E9"/>
</svg>
